<svg width="18" height="20" viewBox="0 0 18 20" fill="none" xmlns="http://www.w3.org/2000/svg">
<path d="M15.6255 4.61333L12.7221 1.70833C11.6196 0.606667 10.1546 0 8.59714 0H4.83464C2.53714 0 0.667969 1.86917 0.667969 4.16667V15.8333C0.667969 18.1308 2.53714 20 4.83464 20H13.168C15.4655 20 17.3346 18.1308 17.3346 15.8333V8.7375C17.3346 7.17833 16.7271 5.715 15.6255 4.61333ZM14.4471 5.7925C14.7121 6.05667 14.9363 6.35083 15.118 6.6675H11.5005C11.0405 6.6675 10.6671 6.29333 10.6671 5.83417V2.21583C10.9838 2.3975 11.278 2.62167 11.543 2.88667L14.4463 5.79167L14.4471 5.7925ZM15.668 15.8342C15.668 17.2125 14.5463 18.3342 13.168 18.3342H4.83464C3.4563 18.3342 2.33464 17.2125 2.33464 15.8342V4.16667C2.33464 2.78833 3.4563 1.66667 4.83464 1.66667H8.59714C8.73297 1.66667 8.86797 1.67333 9.0013 1.68583V5.83333C9.0013 7.21167 10.123 8.33333 11.5013 8.33333H15.6488C15.6613 8.46667 15.668 8.60167 15.668 8.7375V15.8342ZM12.0905 13.4217C12.4163 13.7467 12.4163 14.2742 12.0905 14.6L10.7463 15.945C10.2655 16.4258 9.63297 16.6667 9.0013 16.6667C8.36964 16.6667 7.73714 16.4258 7.2563 15.945L5.91214 14.6C5.5863 14.2742 5.5863 13.7467 5.91214 13.4217C6.23797 13.0958 6.76464 13.0958 7.09047 13.4217L8.16797 14.4992V10.8342C8.16797 10.3742 8.54047 10.0008 9.0013 10.0008C9.46214 10.0008 9.83463 10.3742 9.83463 10.8342V14.4992L10.9121 13.4217C11.238 13.0958 11.7646 13.0958 12.0905 13.4217Z" fill="white"/>
</svg>
