<svg width="32" height="32" viewBox="0 0 32 32" fill="none" xmlns="http://www.w3.org/2000/svg">
<path d="M16 26.6667C23.352 26.6667 29.3333 20.6853 29.3333 13.3333C29.3333 5.98133 23.352 0 16 0C8.648 0 2.66667 5.98133 2.66667 13.3333C2.66667 20.6853 8.648 26.6667 16 26.6667ZM16 2.66667C21.8813 2.66667 26.6667 7.452 26.6667 13.3333C26.6667 19.2147 21.8813 24 16 24C10.1187 24 5.33333 19.2147 5.33333 13.3333C5.33333 7.452 10.1187 2.66667 16 2.66667ZM32 27.3333C32 29.9067 29.9067 32 27.3333 32H4.66667C2.09333 32 0 29.9067 0 27.3333C0 25.8747 0.696 24.4813 1.86133 23.604C2.45067 23.1613 3.28667 23.2813 3.728 23.8667C4.17067 24.4547 4.05333 25.2907 3.46533 25.7333C2.95733 26.1147 2.66667 26.6987 2.66667 27.332C2.66667 28.4347 3.564 29.332 4.66667 29.332H27.3333C28.436 29.332 29.3333 28.4347 29.3333 27.332C29.3333 26.6973 29.0413 26.1147 28.5333 25.732C27.9453 25.288 27.828 24.452 28.272 23.864C28.7133 23.2787 29.5507 23.1587 30.1387 23.6027C31.3213 24.496 32 25.8547 32 27.3333ZM18.6667 16C18.6667 15.4947 18.3053 15.0693 17.808 14.9853L13.7533 14.3107C11.964 14.012 10.6667 12.4787 10.6667 10.6667C10.6667 8.46133 12.4613 6.66667 14.6667 6.66667V5.33333C14.6667 4.596 15.264 4 16 4C16.736 4 17.3333 4.596 17.3333 5.33333V6.66667H17.6907C19.1133 6.66667 20.4413 7.432 21.1547 8.66533C21.5227 9.304 21.3053 10.1187 20.668 10.4867C20.032 10.8573 19.216 10.6373 18.8467 10.0013C18.608 9.588 18.1653 9.33333 17.6907 9.33333H14.6667C13.932 9.33333 13.3333 9.93067 13.3333 10.6667C13.3333 11.172 13.6947 11.5973 14.192 11.6813L18.2467 12.356C20.036 12.6547 21.3333 14.188 21.3333 16C21.3333 18.2053 19.5387 20 17.3333 20V21.3333C17.3333 22.0707 16.736 22.6667 16 22.6667C15.264 22.6667 14.6667 22.0707 14.6667 21.3333V20H14.3093C12.8867 20 11.5587 19.2347 10.8453 18.0013C10.4773 17.3627 10.6947 16.548 11.332 16.18C11.9667 15.8093 12.784 16.0293 13.1533 16.6653C13.392 17.0787 13.8347 17.3333 14.3093 17.3333H17.3333C18.068 17.3333 18.6667 16.736 18.6667 16Z" fill="white"/>
</svg>
