<svg width="32" height="37" viewBox="0 0 32 37" fill="none" xmlns="http://www.w3.org/2000/svg">
<g clip-path="url(#clip0_253_1397)">
<path d="M0.00402896 14.6971C0.00402896 10.7145 0.00965413 6.73266 1.09749e-05 2.75004C-0.00239981 1.65473 0.392166 0.804529 1.37898 0.271745C1.76712 0.06281 2.18981 0.00896902 2.62054 0.00896902C6.81692 0.00736183 11.0125 -0.0135317 15.2089 0.0145942C19.2092 0.0411129 22.3858 3.2788 22.3866 7.2775C22.3882 11.5269 22.3906 15.7763 22.3778 20.0257C22.3769 20.3922 22.4557 20.4766 22.8358 20.4436C27.221 20.0667 30.9409 22.8086 31.8305 27.0508C32.8092 31.7173 29.4173 36.3749 24.6712 36.8804C20.1108 37.3665 16.186 34.3346 15.5054 29.7862C15.458 29.4704 15.3238 29.4158 15.0385 29.4166C10.8823 29.4246 6.72611 29.4246 2.57072 29.4198C1.30585 29.4182 0.366451 28.6941 0.0747454 27.5193C0.00322536 27.2316 0.00322536 26.9367 0.00322536 26.6426C0.00322536 22.6599 0.00322536 18.6781 0.00322536 14.6955L0.00402896 14.6971ZM2.53295 14.685C2.53295 18.6002 2.53696 22.5153 2.52571 26.4304C2.52491 26.7743 2.60286 26.8868 2.96608 26.886C7.05478 26.874 11.1435 26.8764 15.2322 26.8836C15.5118 26.8836 15.642 26.8169 15.7232 26.5188C16.317 24.329 17.6092 22.6599 19.5603 21.5068C19.7757 21.3798 19.8472 21.2432 19.8464 21.0021C19.84 16.4055 19.8504 11.809 19.8384 7.2124C19.8312 4.62965 17.7137 2.54833 15.1269 2.54833C11.0912 2.54833 7.05639 2.55798 3.02073 2.5403C2.59081 2.53869 2.52411 2.6753 2.52571 3.06022C2.53937 6.93516 2.53375 10.8101 2.53375 14.685H2.53295ZM23.6627 34.3707C26.5468 34.4543 29.4333 32.1086 29.4293 28.662C29.4253 25.3681 26.7967 22.9573 23.6989 22.9396C20.5496 22.9219 17.9732 25.5151 17.9748 28.666C17.9765 31.8129 20.5303 34.3748 23.6627 34.3707Z" fill="white"/>
<path d="M10.4868 11.757C9.72906 11.7852 8.98975 11.7337 8.32678 11.3046C7.19612 10.5717 6.70272 9.52062 6.83451 8.1979C6.9671 6.87197 7.71123 5.9856 8.9552 5.54443C9.24931 5.43996 9.33771 5.32023 9.3361 5.01727C9.33208 4.27796 9.87612 3.73634 10.5825 3.7267C11.2896 3.71705 11.861 4.23376 11.8827 4.97147C11.8915 5.28326 12.0056 5.37407 12.2797 5.42389C13.0648 5.56693 13.7728 5.86426 14.2131 6.57785C14.455 6.96921 14.6246 7.3935 14.4863 7.87084C14.3361 8.39077 14.0042 8.72988 13.4618 8.81989C12.9234 8.90909 12.4709 8.72506 12.1873 8.26139C12.0402 8.02192 11.8642 7.93995 11.6095 7.91906C11.0743 7.87647 10.5407 7.88691 10.0079 7.93673C9.57396 7.97691 9.33931 8.23326 9.36744 8.60292C9.39557 8.96855 9.62539 9.16624 10.0497 9.17588C10.4909 9.18552 10.9336 9.21526 11.3724 9.18311C12.6606 9.08748 14.2107 10.096 14.4815 11.7602C14.7387 13.3417 13.8973 14.789 12.3801 15.2856C12.0474 15.3949 11.9245 15.5146 11.9261 15.8771C11.9293 16.6333 11.3933 17.1596 10.6869 17.1733C9.96291 17.1869 9.40119 16.6662 9.38191 15.8939C9.37307 15.5428 9.26619 15.4327 8.92305 15.3604C7.91615 15.1498 7.08925 14.6837 6.83451 13.5756C6.69548 12.9713 6.99683 12.3621 7.54408 12.113C8.09695 11.8615 8.77519 12.023 9.10708 12.5438C9.27663 12.8097 9.47914 12.8813 9.7604 12.907C10.2827 12.9544 10.8027 12.9295 11.3218 12.8861C11.7589 12.8499 11.9864 12.6241 11.9631 12.2737C11.9406 11.9338 11.7196 11.7643 11.288 11.7594C11.0204 11.757 10.7536 11.7594 10.486 11.7594L10.4868 11.757Z" fill="white"/>
<path d="M10.8931 18.4227C12.3363 18.4227 13.7796 18.4203 15.2228 18.4235C16.0811 18.4259 16.654 18.941 16.6556 19.702C16.6573 20.463 16.0787 20.9918 15.2325 20.9918C12.3331 20.9934 9.43292 20.9934 6.53355 20.991C5.70183 20.991 5.09672 20.4341 5.10958 19.6916C5.12243 18.9539 5.70424 18.4259 6.52391 18.4235C7.98002 18.4187 9.43694 18.4219 10.8931 18.4227Z" fill="white"/>
<path d="M9.57831 24.8427C8.56256 24.8427 7.54682 24.8451 6.53187 24.8427C5.69855 24.8403 5.09906 24.289 5.10951 23.5416C5.11915 22.8072 5.70658 22.276 6.52384 22.2752C8.56819 22.272 10.6125 22.2712 12.6569 22.2752C13.5175 22.2768 14.0841 22.7895 14.0881 23.5553C14.0913 24.3155 13.5127 24.8419 12.6657 24.8435C11.6371 24.8451 10.6077 24.8435 9.57911 24.8435L9.57831 24.8427Z" fill="white"/>
<path d="M27.5706 27.3462C27.5826 27.7222 27.4267 28.0236 27.172 28.2791C25.9923 29.4612 24.8183 30.6489 23.6273 31.819C23.019 32.416 22.2154 32.3735 21.6497 31.7378C21.1257 31.1496 20.6082 30.5549 20.1004 29.9514C19.6005 29.3576 19.6528 28.57 20.204 28.0831C20.7384 27.6121 21.55 27.6772 22.0692 28.2373C22.2323 28.4133 22.3986 28.5893 22.5417 28.7814C22.6928 28.9847 22.798 28.9726 22.974 28.7926C23.7471 27.9979 24.5298 27.212 25.3197 26.4341C25.9401 25.8225 26.8707 25.8876 27.3416 26.5578C27.5087 26.7957 27.5875 27.0593 27.5698 27.3454L27.5706 27.3462Z" fill="white"/>
</g>
<defs>
<clipPath id="clip0_253_1397">
<rect width="32" height="36.9325" fill="white"/>
</clipPath>
</defs>
</svg>
