<svg width="24" height="24" viewBox="0 0 24 24" fill="none" xmlns="http://www.w3.org/2000/svg">
<path d="M23.018 8.78519C22.423 8.24319 21.662 7.96519 20.849 8.00319C20.045 8.04019 19.304 8.38919 18.764 8.98419L15.547 12.5192C14.996 11.6092 13.997 11.0002 12.858 11.0002H4C1.794 11.0002 0 12.7942 0 15.0002V20.0002C0 22.2062 1.794 24.0002 4 24.0002H8.965C11.814 24.0002 14.535 22.7802 16.432 20.6522L23.236 13.0152C24.33 11.7892 24.232 9.89219 23.018 8.78519ZM21.743 11.6842L14.939 19.3222C13.421 21.0232 11.244 22.0002 8.965 22.0002H4C2.897 22.0002 2 21.1032 2 20.0002V15.0002C2 13.8972 2.897 13.0002 4 13.0002H12.858C13.487 13.0002 14 13.5132 14 14.1432C14 14.7072 13.579 15.1942 13.02 15.2732L7.859 16.0102C7.313 16.0882 6.933 16.5952 7.011 17.1422C7.089 17.6902 7.598 18.0702 8.142 17.9912L13.303 17.2542C14.478 17.0862 15.432 16.2672 15.817 15.1962L20.244 10.3312C20.425 10.1312 20.674 10.0152 20.943 10.0022C21.215 9.99419 21.472 10.0842 21.671 10.2642C22.078 10.6362 22.111 11.2732 21.743 11.6852V11.6842ZM5.993 8.98619L12 9.00019C12.799 9.00019 13.551 8.68919 14.118 8.12419C14.686 7.55719 15 6.80319 15 6.00019V1.91019C15 1.09519 14.504 0.389191 13.732 0.112191C12.959 -0.163809 12.119 0.0801905 11.558 0.77419L11.159 1.32319L10.606 0.67219C9.715 -0.20981 8.25 -0.18381 7.282 0.79219L6.824 1.33519L6.326 0.66719C6.232 0.541191 6.119 0.43119 5.994 0.342191C5.473 -0.0288095 4.734 -0.0898095 4.106 0.196191C3.424 0.512191 3 1.17519 3 1.92819V5.98619C3 7.63719 4.343 8.98319 5.993 8.98619ZM5 2.23419L5.974 3.54019C6.157 3.78519 6.441 3.93319 6.745 3.94219C7.07 3.97219 7.343 3.82119 7.539 3.58819L8.754 2.14319C8.894 2.00319 9.085 1.98019 9.138 2.02919L10.456 3.58619C10.654 3.82019 10.961 3.95819 11.256 3.93919C11.563 3.92719 11.847 3.77619 12.028 3.52719L12.998 2.19219V6.00119C12.998 6.26919 12.894 6.52019 12.705 6.70919C12.516 6.89719 12.265 7.00119 11.998 7.00119L5.995 6.98719C5.445 6.98719 4.997 6.53719 4.997 5.98719V2.23519L5 2.23419Z" fill="white"/>
</svg>
