<svg width="32" height="28" viewBox="0 0 32 28" fill="none" xmlns="http://www.w3.org/2000/svg">
<path d="M27.9996 14.5657V12.667C27.9996 9.4844 26.7353 6.43215 24.4849 4.18171C22.2345 1.93127 19.1822 0.666992 15.9996 0.666992C12.817 0.666992 9.76476 1.93127 7.51433 4.18171C5.26389 6.43215 3.99961 9.4844 3.99961 12.667V14.5657C2.60115 15.1814 1.45668 16.2589 0.757771 17.6177C0.0588655 18.9766 -0.152043 20.5342 0.160352 22.03C0.472748 23.5257 1.28949 24.8688 2.47384 25.8343C3.65819 26.7998 5.13826 27.3291 6.66628 27.3337C7.37352 27.3337 8.0518 27.0527 8.55189 26.5526C9.05199 26.0525 9.33294 25.3742 9.33294 24.667V16.667C9.33294 15.9597 9.05199 15.2815 8.55189 14.7814C8.0518 14.2813 7.37352 14.0003 6.66628 14.0003V12.667C6.66628 10.1916 7.64961 7.81767 9.39995 6.06733C11.1503 4.31699 13.5243 3.33366 15.9996 3.33366C18.475 3.33366 20.8489 4.31699 22.5993 6.06733C24.3496 7.81767 25.3329 10.1916 25.3329 12.667V14.0003C24.6257 14.0003 23.9474 14.2813 23.4473 14.7814C22.9472 15.2815 22.6663 15.9597 22.6663 16.667V24.667H18.6663C18.3127 24.667 17.9735 24.8075 17.7235 25.0575C17.4734 25.3076 17.3329 25.6467 17.3329 26.0003C17.3329 26.3539 17.4734 26.6931 17.7235 26.9431C17.9735 27.1932 18.3127 27.3337 18.6663 27.3337H25.3329C26.861 27.3291 28.341 26.7998 29.5254 25.8343C30.7097 24.8688 31.5265 23.5257 31.8389 22.03C32.1513 20.5342 31.9404 18.9766 31.2414 17.6177C30.5425 16.2589 29.3981 15.1814 27.9996 14.5657ZM6.66628 24.667C5.60541 24.667 4.58799 24.2456 3.83785 23.4954C3.0877 22.7453 2.66628 21.7279 2.66628 20.667C2.66628 19.6061 3.0877 18.5887 3.83785 17.8386C4.58799 17.0884 5.60541 16.667 6.66628 16.667V24.667ZM25.3329 24.667V16.667C26.3938 16.667 27.4112 17.0884 28.1614 17.8386C28.9115 18.5887 29.3329 19.6061 29.3329 20.667C29.3329 21.7279 28.9115 22.7453 28.1614 23.4954C27.4112 24.2456 26.3938 24.667 25.3329 24.667Z" fill="white"/>
</svg>
