<svg width="21" height="17" viewBox="0 0 21 17" fill="none" xmlns="http://www.w3.org/2000/svg">
<path d="M1.50781 3.44617C1.50781 2.92389 1.71528 2.42301 2.08459 2.05371C2.45389 1.68441 2.95477 1.47694 3.47704 1.47694H17.2617C17.7839 1.47694 18.2848 1.68441 18.6541 2.05371C19.0234 2.42301 19.2309 2.92389 19.2309 3.44617V13.2923C19.2309 13.8146 19.0234 14.3155 18.6541 14.6848C18.2848 15.0541 17.7839 15.2616 17.2617 15.2616H3.47704C2.95477 15.2616 2.45389 15.0541 2.08459 14.6848C1.71528 14.3155 1.50781 13.8146 1.50781 13.2923V3.44617Z" stroke="white" stroke-width="2" stroke-linecap="round" stroke-linejoin="round"/>
<path d="M1.50781 3.44617L10.3694 9.35386L19.2309 3.44617" stroke="white" stroke-width="2" stroke-linecap="round" stroke-linejoin="round"/>
</svg>
