<svg width="28" height="25" viewBox="0 0 28 25" fill="none" xmlns="http://www.w3.org/2000/svg">
<path d="M2.43677 11.3002H26.7827C27.1056 11.3002 27.4152 11.4266 27.6435 11.6516C27.8717 11.8766 28 12.1818 28 12.5C28 12.8182 27.8717 13.1234 27.6435 13.3484C27.4152 13.5734 27.1056 13.6998 26.7827 13.6998H2.43677C2.11392 13.6998 1.8043 13.5734 1.57601 13.3484C1.34772 13.1234 1.21947 12.8182 1.21947 12.5C1.21947 12.1818 1.34772 11.8766 1.57601 11.6516C1.8043 11.4266 2.11392 11.3002 2.43677 11.3002Z" fill="black"/>
<path d="M2.94073 12.5L13.037 22.4491C13.2656 22.6744 13.394 22.98 13.394 23.2986C13.394 23.6173 13.2656 23.9228 13.037 24.1481C12.8084 24.3734 12.4984 24.5 12.1751 24.5C11.8519 24.5 11.5419 24.3734 11.3133 24.1481L0.357627 13.3495C0.244264 13.238 0.154323 13.1056 0.092956 12.9599C0.0315885 12.8141 0 12.6578 0 12.5C0 12.3422 0.0315885 12.1859 0.092956 12.0401C0.154323 11.8944 0.244264 11.762 0.357627 11.6505L11.3133 0.851871C11.5419 0.626572 11.8519 0.5 12.1751 0.5C12.4984 0.5 12.8084 0.626572 13.037 0.851871C13.2656 1.07717 13.394 1.38274 13.394 1.70136C13.394 2.01999 13.2656 2.32556 13.037 2.55086L2.94073 12.5Z" fill="black"/>
</svg>
