<svg width="20" height="23" viewBox="0 0 20 23" fill="none" xmlns="http://www.w3.org/2000/svg">
<path d="M17.1571 16.6802L11.9362 21.9026C11.7304 22.1085 11.4862 22.2718 11.2173 22.3832C10.9484 22.4946 10.6602 22.552 10.3692 22.552C10.0781 22.552 9.78992 22.4946 9.52104 22.3832C9.25217 22.2718 9.00788 22.1085 8.80215 21.9026L3.58122 16.6802C2.68972 15.7888 1.98252 14.7305 1.50001 13.5658C1.01749 12.4011 0.769112 11.1527 0.769043 9.89203C0.768974 8.63132 1.01722 7.38295 1.49961 6.21818C1.982 5.05342 2.68908 3.99507 3.58048 3.10357C4.47189 2.21207 5.53016 1.50487 6.69487 1.02235C7.85959 0.53984 9.10793 0.291458 10.3686 0.291389C11.6293 0.291321 12.8777 0.539567 14.0425 1.02196C15.2073 1.50434 16.2656 2.21142 17.1571 3.10283C18.0487 3.99429 18.7559 5.05264 19.2384 6.21745C19.721 7.38226 19.9693 8.63071 19.9693 9.89151C19.9693 11.1523 19.721 12.4008 19.2384 13.5656C18.7559 14.7304 18.0487 15.7887 17.1571 16.6802ZM15.5916 4.66984C14.9057 3.98403 14.0916 3.44001 13.1955 3.06885C12.2994 2.69769 11.3391 2.50666 10.3692 2.50666C9.39927 2.50666 8.43888 2.69769 7.54282 3.06885C6.64676 3.44001 5.83258 3.98403 5.14676 4.66984C4.46094 5.35566 3.91693 6.16984 3.54577 7.0659C3.1746 7.96196 2.98357 8.92236 2.98357 9.89225C2.98357 10.8621 3.1746 11.8225 3.54577 12.7186C3.91693 13.6146 4.46095 14.4288 5.14676 15.1146L10.3692 20.3341L15.5916 15.1146C16.2775 14.4289 16.8216 13.6147 17.1928 12.7187C17.5641 11.8226 17.7552 10.8622 17.7552 9.89225C17.7552 8.92232 17.5641 7.9619 17.1928 7.06583C16.8216 6.16976 16.2775 5.3556 15.5916 4.66984ZM10.3692 12.8461C9.9758 12.855 9.58462 12.7852 9.2186 12.6408C8.85258 12.4965 8.51909 12.2804 8.23771 12.0054C7.95632 11.7304 7.73272 11.4019 7.58003 11.0393C7.42734 10.6767 7.34863 10.2872 7.34853 9.89374C7.34844 9.50028 7.42695 9.11076 7.57946 8.74806C7.73197 8.38535 7.9554 8.05677 8.23665 7.78161C8.51789 7.50645 8.85128 7.29025 9.21723 7.1457C9.58318 7.00116 9.97432 6.93118 10.3677 6.93988C11.1395 6.95694 11.8739 7.27547 12.4138 7.82727C12.9536 8.37907 13.256 9.12029 13.2562 9.89226C13.2564 10.6642 12.9544 11.4056 12.4148 11.9577C11.8752 12.5097 11.1409 12.8286 10.3692 12.8461Z" fill="white"/>
</svg>
