<svg width="63" height="63" viewBox="0 0 63 63" fill="none" xmlns="http://www.w3.org/2000/svg">
<path d="M61.5 30.0006H56.927C56.7836 27.2275 56.1761 24.5023 55.1327 21.9289C54.8149 21.1667 53.9403 20.8011 53.1752 21.1161C52.4102 21.4311 52.0446 22.3029 52.3568 23.0707C53.254 25.2785 53.7855 27.6184 53.929 30.0005H49.4347C49.3194 28.6224 49.0522 27.264 48.6331 25.945C48.3828 25.1575 47.5391 24.7188 46.7488 24.9691C45.9613 25.2222 45.5226 26.0631 45.7757 26.8534C46.0963 27.8771 46.3129 28.9318 46.4169 30.0005H40.4995C40.103 30.0005 39.7205 30.158 39.4392 30.4393C39.1579 30.7205 39.0005 31.103 39.0005 31.4996C39.0005 34.5341 37.1724 37.2678 34.3684 38.4294C31.5673 39.5881 28.3414 38.9468 26.1952 36.8038C24.0521 34.6579 23.4109 31.4321 24.5697 28.6306C25.7312 25.8266 28.4649 23.9985 31.4995 23.9985C31.896 23.9985 32.2785 23.841 32.5598 23.5598C32.8411 23.2785 32.9985 22.8961 32.9985 22.4995V16.5821C34.0673 16.6862 35.1219 16.9027 36.1456 17.2233C36.9359 17.4737 37.7796 17.0377 38.0299 16.2474C38.2803 15.4599 37.8443 14.6162 37.054 14.3659C35.7378 13.9468 34.3766 13.6797 32.9985 13.5643V9.07008C35.3806 9.21352 37.7206 9.74506 39.9283 10.6422C40.6961 10.9544 41.5679 10.5888 41.8829 9.82383C42.1979 9.05886 41.8323 8.18422 41.0701 7.86635C38.4968 6.82295 35.7715 6.21544 32.9984 6.07202V1.499C32.9984 0.672172 32.3291 0 31.4995 0C30.6698 0 30.0005 0.672165 30.0005 1.499V6.07482C23.7766 6.44888 17.9041 9.08974 13.4971 13.4971C9.0901 17.9044 6.44914 23.7762 6.07482 30.0005H1.499C0.672173 30.0005 0 30.6698 0 31.4995C0 32.3291 0.672166 32.9984 1.499 32.9984H6.07482C6.44888 39.2223 9.08974 45.0948 13.4971 49.5018C17.9044 53.9088 23.7762 56.5498 30.0005 56.9241V61.4999C30.0005 62.3267 30.6698 62.9989 31.4995 62.9989C32.3291 62.9989 32.9984 62.3267 32.9984 61.4999V56.9241C39.2223 56.55 45.0948 53.9092 49.5018 49.5018C53.9088 45.0945 56.5498 39.2227 56.9241 32.9984H61.4999C62.3267 32.9984 62.9989 32.3291 62.9989 31.4995C62.9989 30.6698 62.3269 30.0006 61.5 30.0006ZM21.0012 31.4996C20.9984 35.0713 22.8124 38.3984 25.8161 40.3308C28.8197 42.2633 32.6024 42.5358 35.8511 41.0508C39.0995 39.5687 41.3719 36.5341 41.881 32.9986H46.423C46.0433 36.7841 44.2377 40.2855 41.3747 42.7889C38.5117 45.2947 34.8021 46.6166 30.9998 46.49C27.1975 46.3634 23.5833 44.7969 20.8949 42.1054C18.2034 39.4168 16.6369 35.8028 16.5104 32.0005C16.381 28.1982 17.7057 24.4883 20.2115 21.6256C22.7146 18.7626 26.216 16.957 30.0018 16.5774V21.1222V21.1194C27.5043 21.4822 25.2207 22.7309 23.5698 24.6349C21.9161 26.5417 21.0049 28.9773 21.0021 31.5001L21.0012 31.4996ZM30.0009 9.07583V13.5757C25.7654 13.9357 21.7917 15.7806 18.788 18.7871C15.7815 21.7908 13.9366 25.7647 13.5766 30.0001H9.07669C9.44512 24.5721 11.7682 19.4589 15.6155 15.6149C19.4601 11.7675 24.573 9.44424 30.0009 9.07583ZM9.07691 32.9986H13.5768C13.9368 37.2341 15.7817 41.2078 18.7882 44.2115C21.7919 47.218 25.7658 49.063 30.0012 49.423V53.9228C24.5732 53.5544 19.4599 51.2313 15.616 47.384C11.7685 43.5394 9.44532 38.4265 9.07691 32.9986ZM32.9997 53.9226V49.4227C37.2351 49.0628 41.2089 47.2178 44.2126 44.2113C47.2191 41.2076 49.0641 37.2337 49.424 32.9984H53.9239C53.5555 38.4264 51.2324 43.5396 47.3851 47.3835C43.5405 51.231 38.4276 53.5542 32.9997 53.9226Z" fill="white"/>
</svg>
