<svg width="32" height="32" viewBox="0 0 32 32" fill="none" xmlns="http://www.w3.org/2000/svg">
<path d="M26.6667 13.3333V22.6667C26.6667 24.1373 25.4707 25.3333 24 25.3333H14.6667C13.196 25.3333 12 24.1373 12 22.6667V12C12 11.264 12.596 10.6667 13.3333 10.6667C14.0707 10.6667 14.6667 11.264 14.6667 12V22.6667H18.6667V18.6667C18.6667 17.9307 19.2627 17.3333 20 17.3333C20.7373 17.3333 21.3333 17.9307 21.3333 18.6667V22.6667H24V13.3333H18.6667C17.9293 13.3333 17.3333 12.736 17.3333 12C17.3333 11.264 17.9293 10.6667 18.6667 10.6667H24C25.4707 10.6667 26.6667 11.8627 26.6667 13.3333ZM32 12V25.3333C32 29.0147 29.0147 32 25.3333 32H4.85733C2.17467 32 0 29.8253 0 27.1427V4.66667C0 2.08933 2.08933 0 4.66667 0H5.33333C7.54267 0 9.33333 1.79067 9.33333 4V5.33333H25.3333C29.0147 5.33333 32 8.31867 32 12ZM2.66667 23.1173C3.28533 22.824 3.96933 22.6667 4.66667 22.6667H5.33333C6.06933 22.6667 6.66667 22.068 6.66667 21.3333V4C6.66667 3.26533 6.06933 2.66667 5.33333 2.66667H4.66667C3.564 2.66667 2.66667 3.564 2.66667 4.66667V23.1173ZM29.3333 12C29.3333 9.79067 27.5427 8 25.3333 8H9.33333V21.3333C9.33333 23.5427 7.54267 25.3333 5.33333 25.3333H4.66667C3.56267 25.3333 2.66667 26.2293 2.66667 27.3333C2.66667 28.4373 3.56267 29.3333 4.66667 29.3333H25.3333C27.5427 29.3333 29.3333 27.5427 29.3333 25.3333V12Z" fill="white"/>
</svg>
