<svg width="19" height="19" viewBox="0 0 19 19" fill="none" xmlns="http://www.w3.org/2000/svg">
<path d="M17.197 18.2308C15.1458 18.2308 13.1191 17.7838 11.117 16.8897C9.11499 15.9957 7.29345 14.7278 5.65243 13.0862C4.0114 11.4445 2.74387 9.62295 1.84984 7.62155C0.955812 5.62016 0.508469 3.59349 0.507812 1.54155C0.507812 1.24617 0.606274 1.00001 0.803197 0.80309C1.00012 0.606167 1.24627 0.507706 1.54166 0.507706H5.52935C5.7591 0.507706 5.96422 0.585818 6.14474 0.742044C6.32525 0.89827 6.43192 1.08272 6.46474 1.2954L7.10474 4.74155C7.13756 5.00412 7.12935 5.22565 7.08012 5.40617C7.03089 5.58668 6.94063 5.74258 6.80935 5.87386L4.42166 8.28617C4.74986 8.89335 5.13944 9.47985 5.5904 10.0457C6.04135 10.6115 6.53793 11.1573 7.08012 11.6831C7.58884 12.1918 8.12217 12.6638 8.68012 13.099C9.23807 13.5342 9.82884 13.932 10.4524 14.2923L12.7663 11.9785C12.914 11.8308 13.107 11.7202 13.3452 11.6467C13.5835 11.5731 13.8172 11.5525 14.0463 11.5846L17.4432 12.2739C17.6729 12.3395 17.8617 12.4586 18.0094 12.6313C18.157 12.8039 18.2309 12.9966 18.2309 13.2092V17.1969C18.2309 17.4923 18.1324 17.7385 17.9355 17.9354C17.7386 18.1323 17.4924 18.2308 17.197 18.2308Z" fill="white"/>
</svg>
