<svg width="24" height="24" viewBox="0 0 24 24" fill="none" xmlns="http://www.w3.org/2000/svg">
<path d="M20 10V17C20 18.103 19.103 19 18 19H11C9.897 19 9 18.103 9 17V9C9 8.448 9.447 8 10 8C10.553 8 11 8.448 11 9V17H14V14C14 13.448 14.447 13 15 13C15.553 13 16 13.448 16 14V17H18V10H14C13.447 10 13 9.552 13 9C13 8.448 13.447 8 14 8H18C19.103 8 20 8.897 20 10ZM24 9V19C24 21.761 21.761 24 19 24H3.643C1.631 24 0 22.369 0 20.357V3.5C0 1.567 1.567 0 3.5 0H4C5.657 0 7 1.343 7 3V4H19C21.761 4 24 6.239 24 9ZM2 17.338C2.464 17.118 2.977 17 3.5 17H4C4.552 17 5 16.551 5 16V3C5 2.449 4.552 2 4 2H3.5C2.673 2 2 2.673 2 3.5V17.338ZM22 9C22 7.343 20.657 6 19 6H7V16C7 17.657 5.657 19 4 19H3.5C2.672 19 2 19.672 2 20.5C2 21.328 2.672 22 3.5 22H19C20.657 22 22 20.657 22 19V9Z" fill="white"/>
</svg>
