<svg width="24" height="24" viewBox="0 0 24 24" fill="none" xmlns="http://www.w3.org/2000/svg">
<path d="M8 4.99993C8 2.79393 6.206 0.999926 4 0.999926C1.794 0.999926 0 2.79393 0 4.99993C0 6.85993 1.277 8.42793 3 8.87293V16.1259C1.277 16.5709 0 18.1389 0 19.9989C0 22.2049 1.794 23.9989 4 23.9989C6.206 23.9989 8 22.2049 8 19.9989C8 18.1389 6.723 16.5709 5 16.1259V8.87293C6.723 8.42793 8 6.85993 8 4.99993ZM2 4.99993C2 3.89693 2.897 2.99993 4 2.99993C5.103 2.99993 6 3.89693 6 4.99993C6 6.10293 5.103 6.99993 4 6.99993C2.897 6.99993 2 6.10293 2 4.99993ZM6 19.9999C6 21.1029 5.103 21.9999 4 21.9999C2.897 21.9999 2 21.1029 2 19.9999C2 18.8969 2.897 17.9999 4 17.9999C5.103 17.9999 6 18.8969 6 19.9999ZM21 16.1269V8.99993C21 6.24293 18.757 3.99993 16 3.99993H12.529L14.725 1.68893C15.106 1.28893 15.089 0.654926 14.689 0.274926C14.29 -0.104074 13.656 -0.0890737 13.276 0.310926L10.88 2.83293C9.71 4.00193 9.71 5.90593 10.85 7.04493L13.265 9.67593C13.461 9.89093 13.731 9.99993 14.001 9.99993C14.243 9.99993 14.485 9.91293 14.677 9.73693C15.084 9.36293 15.112 8.73093 14.738 8.32393L12.605 5.99993H16.002C17.656 5.99993 19.002 7.34593 19.002 8.99993V16.1269C17.278 16.5719 16.002 18.1399 16.002 19.9999C16.002 22.2059 17.796 23.9999 20.002 23.9999C22.208 23.9999 24.002 22.2059 24.002 19.9999C24.002 18.1399 22.726 16.5719 21.002 16.1269H21ZM20 21.9999C18.897 21.9999 18 21.1029 18 19.9999C18 18.8969 18.897 17.9999 20 17.9999C21.103 17.9999 22 18.8969 22 19.9999C22 21.1029 21.103 21.9999 20 21.9999Z" fill="white"/>
</svg>
