<svg width="22" height="24" viewBox="0 0 22 24" fill="none" xmlns="http://www.w3.org/2000/svg">
<path d="M20.2992 13.885L19.8482 13.626C19.9502 13.082 20.0012 12.538 20.0012 12.001C20.0012 11.464 19.9502 10.919 19.8482 10.376L20.2992 10.116C21.7332 9.29095 22.2292 7.45295 21.4042 6.01995C21.0052 5.32495 20.3592 4.82795 19.5852 4.61895C18.8122 4.41095 18.0032 4.51595 17.3082 4.91395L16.8582 5.17295C16.0172 4.45295 15.0482 3.89295 14.0012 3.52395V3.00195C14.0012 1.34795 12.6552 0.00195312 11.0012 0.00195312C9.34718 0.00195312 8.00118 1.34795 8.00118 3.00195V3.52395C6.95418 3.89395 5.98518 4.45295 5.14418 5.17295L4.69418 4.91495C4.00018 4.51495 3.19118 4.41095 2.41718 4.61895C1.64318 4.82795 0.997179 5.32595 0.598179 6.01995C-0.226821 7.45395 0.269179 9.29095 1.70318 10.117L2.15418 10.376C2.05218 10.92 2.00118 11.464 2.00118 12.001C2.00118 12.538 2.05218 13.083 2.15418 13.626L1.70318 13.886C0.269179 14.711 -0.226821 16.549 0.598179 17.982C0.997179 18.677 1.64318 19.174 2.41718 19.383C3.19018 19.593 4.00018 19.487 4.69418 19.088L5.14418 18.829C5.98518 19.549 6.95418 20.109 8.00118 20.478V21C8.00118 22.654 9.34718 24 11.0012 24C12.6552 24 14.0012 22.654 14.0012 21V20.478C15.0482 20.108 16.0172 19.549 16.8582 18.829L17.3082 19.087C18.0032 19.487 18.8122 19.593 19.5852 19.383C20.3592 19.174 21.0052 18.676 21.4042 17.982C22.2292 16.548 21.7332 14.711 20.2992 13.885ZM17.7432 10.141C17.9142 10.765 18.0012 11.391 18.0012 12C18.0012 12.609 17.9142 13.235 17.7432 13.859C17.6222 14.298 17.8142 14.764 18.2092 14.991L19.3022 15.619C19.7802 15.894 19.9462 16.507 19.6702 16.985C19.5372 17.216 19.3222 17.382 19.0642 17.452C18.8072 17.523 18.5372 17.487 18.3052 17.353L17.2142 16.726C16.8182 16.499 16.3192 16.568 16.0012 16.894C15.1122 17.802 13.9892 18.451 12.7512 18.77C12.3092 18.884 12.0012 19.282 12.0012 19.738V21C12.0012 21.551 11.5522 22 11.0012 22C10.4502 22 10.0012 21.551 10.0012 21V19.738C10.0012 19.282 9.69218 18.884 9.25118 18.77C8.01418 18.451 6.89018 17.802 6.00118 16.894C5.80818 16.696 5.54818 16.593 5.28618 16.593C5.11618 16.593 4.94418 16.636 4.78818 16.726L3.69718 17.353C3.46518 17.486 3.19418 17.521 2.93818 17.452C2.68018 17.382 2.46518 17.217 2.33218 16.985C2.05718 16.507 2.22318 15.895 2.70118 15.62L3.79418 14.992C4.18918 14.765 4.38018 14.299 4.26018 13.86C4.08918 13.236 4.00218 12.61 4.00218 12.001C4.00218 11.392 4.08918 10.766 4.26018 10.142C4.38118 9.70295 4.18918 9.23695 3.79418 9.00995L2.70118 8.38195C2.22318 8.10695 2.05718 7.49395 2.33318 7.01595C2.46618 6.78495 2.68118 6.61895 2.93918 6.54895C3.19718 6.47995 3.46718 6.51495 3.69818 6.64795L4.78918 7.27495C5.18518 7.50295 5.68418 7.43295 6.00218 7.10695C6.89118 6.19895 8.01418 5.54995 9.25218 5.23095C9.69418 5.11695 10.0022 4.71895 10.0022 4.26295V3.00095C10.0022 2.44995 10.4512 2.00095 11.0022 2.00095C11.5532 2.00095 12.0022 2.44995 12.0022 3.00095V4.26295C12.0022 4.71895 12.3112 5.11695 12.7522 5.23095C13.9892 5.54995 15.1132 6.19895 16.0022 7.10695C16.3212 7.43295 16.8192 7.50295 17.2152 7.27495L18.3062 6.64795C18.5372 6.51395 18.8062 6.47795 19.0652 6.54895C19.3232 6.61895 19.5382 6.78395 19.6712 7.01595C19.9462 7.49395 19.7802 8.10595 19.3022 8.38095L18.2092 9.00895C17.8142 9.23595 17.6232 9.70195 17.7432 10.141ZM14.7462 14.674C15.1142 15.086 15.0792 15.718 14.6682 16.086C14.4772 16.257 14.2392 16.341 14.0012 16.341C13.7262 16.341 13.4532 16.229 13.2552 16.008C12.6812 15.367 11.8592 15 11.0002 15C10.1412 15 9.31918 15.368 8.74518 16.008C8.37718 16.419 7.74518 16.455 7.33318 16.086C6.92118 15.718 6.88718 15.086 7.25518 14.674C8.20718 13.61 9.57218 13 11.0002 13C12.4282 13 13.7942 13.61 14.7462 14.674ZM8.50118 9.49995C8.50118 8.11895 9.62018 6.99995 11.0012 6.99995C12.3822 6.99995 13.5012 8.11895 13.5012 9.49995C13.5012 10.881 12.3822 12 11.0012 12C9.62018 12 8.50118 10.881 8.50118 9.49995Z" fill="white"/>
</svg>
