<svg width="32" height="32" viewBox="0 0 32 32" fill="none" xmlns="http://www.w3.org/2000/svg">
<path d="M12 16C16.412 16 20 12.412 20 8C20 3.588 16.412 0 12 0C7.588 0 4 3.588 4 8C4 12.412 7.588 16 12 16ZM12 2.66667C14.9413 2.66667 17.3333 5.05867 17.3333 8C17.3333 10.9413 14.9413 13.3333 12 13.3333C9.05867 13.3333 6.66667 10.9413 6.66667 8C6.66667 5.05867 9.05867 2.66667 12 2.66667ZM14.3333 21.6267C13.576 21.432 12.7907 21.3333 12 21.3333C6.85333 21.3333 2.66667 25.52 2.66667 30.6667C2.66667 31.4027 2.06933 32 1.33333 32C0.597333 32 0 31.4027 0 30.6667C0 24.0507 5.384 18.6667 12 18.6667C13.016 18.6667 14.0253 18.7933 15 19.0453C15.7133 19.2293 16.1413 19.956 15.9587 20.6693C15.776 21.3827 15.052 21.8107 14.3347 21.628L14.3333 21.6267ZM30.828 15.8387C29.316 14.3267 26.6813 14.3267 25.1707 15.8387L16.228 24.7813C15.2213 25.788 14.6653 27.128 14.6653 28.5533V30.668C14.6653 31.404 15.2627 32.0013 15.9987 32.0013H18.1133C19.5387 32.0013 20.8773 31.4453 21.884 30.4387L30.8267 21.496C31.5827 20.74 31.9987 19.736 31.9987 18.6667C31.9987 17.5973 31.5827 16.5933 30.828 15.8387ZM28.9413 19.6093L19.9973 28.552C19.4947 29.056 18.8253 29.3333 18.112 29.3333H17.3307V28.552C17.3307 27.84 17.608 27.1707 18.112 26.6667L27.056 17.724C27.5587 17.22 28.4373 17.22 28.9413 17.724C29.1933 17.9747 29.332 18.3093 29.332 18.6667C29.332 19.024 29.1933 19.3573 28.9413 19.6093Z" fill="white"/>
</svg>
