<svg width="79" height="79" viewBox="0 0 79 79" fill="none" xmlns="http://www.w3.org/2000/svg">
<path d="M37.043 5.79293L37.5 5.33591V7.81251C37.5 8.67579 38.1992 9.37501 39.0625 9.37501C39.9258 9.37501 40.625 8.67579 40.625 7.81251V5.33591L41.082 5.79293C41.6641 6.37496 42.6836 6.40231 43.2929 5.79293C43.9022 5.18355 43.9023 4.19524 43.2929 3.58204L40.1679 0.457035C39.5586 -0.152345 38.5702 -0.152345 37.957 0.457035L34.832 3.58204C34.2227 4.19141 34.2227 5.17973 34.832 5.79293C35.4414 6.40231 36.4337 6.40231 37.043 5.79293Z" fill="white"/>
<path d="M7.8125 37.5009H5.3359L5.79294 37.0439C6.40232 36.4345 6.40232 35.4462 5.79294 34.833C5.18356 34.2236 4.19524 34.2236 3.58204 34.833L0.457035 37.958C-0.152345 38.5674 -0.152345 39.5557 0.457035 40.1689C0.457035 40.1689 3.57423 43.2861 3.58204 43.2939C4.14845 43.8603 5.19534 43.8877 5.79294 43.2939C6.40232 42.6845 6.40232 41.6962 5.79294 41.083L5.3359 40.626H7.8125C8.67579 40.626 9.375 39.9268 9.375 39.0635C9.375 38.2002 8.67579 37.5009 7.8125 37.5009Z" fill="white"/>
<path d="M41.083 72.333L40.6259 72.7901V70.3135C40.6259 69.4502 39.9267 68.751 39.0634 68.751C38.2002 68.751 37.5009 69.4502 37.5009 70.3135V72.7901L37.0439 72.333C36.4345 71.7237 35.4462 71.7237 34.833 72.333C34.2236 72.9424 34.2236 73.9308 34.833 74.544L37.958 77.669C38.2627 77.9736 38.665 78.126 39.0635 78.126C39.462 78.126 39.8643 77.9736 40.169 77.669L43.294 74.544C43.9034 73.9346 43.9034 72.9462 43.294 72.333C42.6846 71.7237 41.6923 71.7237 41.083 72.333Z" fill="white"/>
<path d="M77.668 37.958L74.543 34.833C73.9336 34.2236 72.9453 34.2236 72.3321 34.833C71.7227 35.4424 71.7227 36.4307 72.3321 37.0439L72.7891 37.5009H70.3125C69.4492 37.5009 68.75 38.2002 68.75 39.0634C68.75 39.9267 69.4492 40.6259 70.3125 40.6259H72.7891L72.3321 41.083C71.7227 41.6923 71.7227 42.6807 72.3321 43.2939C72.9219 43.8837 73.9532 43.8837 74.543 43.2939L77.668 40.1689C78.2774 39.5595 78.2774 38.5673 77.668 37.958Z" fill="white"/>
<path d="M42.6959 12.751C40.3365 12.4229 37.8014 12.4189 35.4264 12.751C28.8873 13.6377 22.9264 16.9463 18.6494 22.0596C18.0283 22.7979 17.4463 23.5869 16.915 24.3955C16.4424 25.1181 16.6455 26.0869 17.3682 26.5596C18.0908 27.0322 19.0596 26.8291 19.5323 26.1065C19.7276 25.8057 19.962 25.5322 20.1729 25.2432C21.4034 26.1143 22.6846 26.8916 24.001 27.5713C22.8018 30.7354 22.1065 34.0635 21.9424 37.501H15.6846C15.6924 37.3525 15.6924 37.208 15.7002 37.0596C15.7588 36.2002 15.1065 35.4541 14.2471 35.3955C13.3448 35.3759 12.6416 35.9892 12.583 36.8486C12.5322 37.5868 12.501 38.3252 12.501 39.0634C12.501 45.2743 14.6846 51.3134 18.6455 56.0634C22.9228 61.1806 28.8835 64.4853 35.4305 65.3759C36.6141 65.5438 37.8367 65.6259 39.0633 65.6259C40.2899 65.6259 41.5164 65.5438 42.7 65.3759C49.243 64.4891 55.204 61.1806 59.481 56.0673C63.4419 51.3134 65.6255 45.2743 65.6255 39.0633C65.6255 32.8523 63.4419 26.8133 59.481 22.0633C55.2037 16.9461 49.2429 13.6377 42.6959 12.751ZM55.9579 22.837C54.9736 23.5206 53.9579 24.1378 52.9149 24.6886C51.6415 22.0753 50.0282 19.6378 48.1102 17.4503C51.0477 18.6769 53.7118 20.505 55.9579 22.837ZM40.6259 15.6808C41.04 15.7081 41.4462 15.755 41.8564 15.8058C45.2705 18.5089 48.0556 21.9308 49.9892 25.8098C47.3954 23.6653 44.1611 22.2746 40.6259 21.9543V15.6808ZM36.2704 15.8058C36.6806 15.755 37.0868 15.7081 37.5009 15.6808V21.9542C33.9657 22.2745 30.7314 23.6612 28.1376 25.8019C30.0751 21.9269 32.8603 18.505 36.2704 15.8058ZM22.1684 22.837C24.4145 20.5011 27.0825 18.6768 30.0161 17.4503C28.102 19.6378 26.4849 22.0753 25.2114 24.6886C24.1684 24.1378 23.1528 23.5206 22.1684 22.837ZM20.1528 52.896C17.5395 49.3218 15.9887 45.0601 15.6919 40.626H21.938C22.0943 44.044 22.7935 47.376 23.9927 50.5557C22.6763 51.2354 21.391 52.0171 20.1528 52.896ZM22.1684 55.2905C23.1528 54.6069 24.1684 53.9897 25.2114 53.4389C26.4848 56.0522 28.0981 58.4897 30.0161 60.6772C27.0786 59.4506 24.4145 57.6225 22.1684 55.2905ZM37.5004 62.4467C37.0864 62.4193 36.6762 62.3725 36.2699 62.3256C32.8597 59.6225 30.0746 56.2006 28.1371 52.3256C30.7309 54.4662 33.9652 55.8529 37.5004 56.1733V62.4467ZM25.0004 39.0637C25.0004 31.3098 31.309 25.0017 39.0624 25.0017C46.8158 25.0017 53.1244 31.3103 53.1244 39.0637C53.1244 46.8171 46.8158 53.1257 39.0624 53.1257C31.309 53.1257 25.0004 46.8171 25.0004 39.0637ZM41.8554 62.3257C41.4492 62.3726 41.039 62.4194 40.6249 62.4468V56.1695C44.1601 55.8492 47.3944 54.4625 49.9882 52.3179C48.0507 56.2007 45.2655 59.6224 41.8554 62.3257ZM48.1093 60.6773C50.0234 58.4898 51.6366 56.0523 52.914 53.439C53.957 53.9898 54.9765 54.607 55.957 55.2906C53.7109 57.6226 51.0468 59.4508 48.1093 60.6773ZM57.9726 52.8961C56.7382 52.0211 55.4531 51.2399 54.1328 50.5563C55.3281 47.3922 56.0234 44.0641 56.1875 40.6266H62.4336C62.1368 45.0602 60.5858 49.3214 57.9726 52.8961ZM56.1874 37.5011C56.0312 34.087 55.332 30.7511 54.1327 27.5714C55.453 26.8917 56.7382 26.1105 57.9725 25.2316C60.5858 28.8058 62.1366 33.0675 62.4334 37.5016L56.1874 37.5011Z" fill="white"/>
<path d="M17.0078 30.844C17.0078 32.926 13.8828 32.926 13.8828 30.844C13.8828 28.7581 17.0078 28.7581 17.0078 30.844Z" fill="white"/>
<path d="M39.0625 34.375H42.1875C43.0508 34.375 43.75 33.6758 43.75 32.8125C43.75 31.9492 43.0508 31.25 42.1875 31.25H40.625V29.6875C40.625 28.8242 39.9258 28.125 39.0625 28.125C38.1992 28.125 37.5 28.8242 37.5 29.6875V31.5391C35.6836 32.1836 34.375 33.9024 34.375 35.9375C34.375 38.5234 36.4766 40.625 39.0625 40.625C39.9258 40.625 40.625 41.3242 40.625 42.1875C40.625 43.0508 39.9258 43.75 39.0625 43.75H35.9375C35.0742 43.75 34.375 44.4492 34.375 45.3125C34.375 46.1758 35.0742 46.875 35.9375 46.875H37.5V48.4375C37.5 49.3008 38.1992 50 39.0625 50C39.9258 50 40.625 49.3008 40.625 48.4375V46.5859C42.4414 45.9375 43.75 44.2187 43.75 42.1875C43.75 39.6016 41.6484 37.5 39.0625 37.5C38.1992 37.5 37.5 36.8008 37.5 35.9375C37.5 35.0742 38.1992 34.375 39.0625 34.375Z" fill="white"/>
</svg>
