<svg width="63" height="63" viewBox="0 0 63 63" fill="none" xmlns="http://www.w3.org/2000/svg">
<path d="M21.3078 31.003L26.4941 34.3281C27.1041 34.7196 27.9164 34.5417 28.3074 33.9317L31.5004 28.9516L34.6935 33.9318C35.0862 34.544 35.8991 34.7179 36.5068 34.3282L41.6931 31.0025C42.3032 30.6112 42.4807 29.7994 42.0894 29.1892L36.7189 20.8124L40.8776 14.3263C43.1789 10.7367 42.6223 5.98253 39.5539 3.02186C39.5363 3.00482 39.5169 2.98987 39.4983 2.97393L39.4996 2.97257C34.9011 -0.994254 28.0922 -0.98746 23.5017 2.97257C23.4891 2.98344 23.4781 2.99543 23.466 3.00667C23.4602 3.0121 23.4538 3.01667 23.4481 3.02211C23.4373 3.03249 23.4274 3.04336 23.4168 3.05361C23.4115 3.05917 23.4058 3.06436 23.4006 3.06992C20.3736 6.03343 19.8339 10.7559 22.1243 14.3267L26.2821 20.8129L20.9114 29.1896C20.5201 29.7997 20.6977 30.6118 21.3078 31.003ZM39.1713 29.5014L36.1949 31.4099L33.0595 26.5199L35.1598 23.2441L39.1713 29.5014ZM36.885 4.27607L35.2911 6.76201C32.8345 5.96486 30.1669 5.96486 27.7103 6.76201L26.1163 4.27607C29.3482 2.10057 33.6531 2.10057 36.885 4.27607ZM33.8118 9.06908L31.5006 12.6738L29.1894 9.06908C30.7051 8.69601 32.2962 8.69601 33.8118 9.06908ZM24.334 12.9099C23.0102 10.8458 23.0219 8.23833 24.2379 6.2097L29.9416 15.1057L27.8413 18.3813L24.334 12.9099ZM38.7634 6.20958C39.9791 8.23858 39.9909 10.8459 38.6678 12.9095L26.8061 31.4099L23.8295 29.5015C24.4133 28.5909 37.4088 8.32233 38.7634 6.20958Z" fill="white"/>
<path d="M59.1631 37.4205C57.6786 36.9496 56.0569 37.1319 54.7072 37.9254L45.7162 43.2814C45.4493 41.113 43.5972 39.428 41.3577 39.428H33.7185C28.1301 36.0783 21.0886 35.6058 14.9469 38.5287V37.0435C14.9469 36.3186 14.3592 35.731 13.6344 35.731H1.31252C0.587637 35.731 0 36.3186 0 37.0435V43.0496C0 43.7744 0.587637 44.3621 1.31252 44.3621C2.0374 44.3621 2.62503 43.7744 2.62503 43.0496V38.356H12.3218C12.3218 39.1607 12.3218 59.0121 12.3218 60.3748H2.62503V48.2996C2.62503 47.5747 2.0374 46.9871 1.31252 46.9871C0.587637 46.9871 0 47.5749 0 48.2997V61.6874C0 62.4123 0.587637 62.9999 1.31252 62.9999H13.6344C14.3592 62.9999 14.9469 62.4123 14.9469 61.6874V59.4988L28.6875 62.0705C31.912 62.6746 35.2537 62.0968 38.0961 60.4279L46.1628 55.6936C46.788 55.3267 46.9974 54.5224 46.6304 53.8973C46.2635 53.2722 45.4592 53.0626 44.8341 53.4297L36.7673 58.1641C34.4776 59.5082 31.7802 59.9792 29.1707 59.4903L14.947 56.8282V41.4873C20.4192 38.3771 27.2906 38.4982 32.6526 41.8533C32.8614 41.9839 33.1026 42.0531 33.3488 42.0531H41.3578C42.3326 42.0531 43.1257 42.8463 43.1257 43.8211C43.1257 44.7959 42.3326 45.589 41.3578 45.589H27.1878C26.4629 45.589 25.8753 46.1766 25.8753 46.9015C25.8753 47.6264 26.4629 48.214 27.1878 48.214H41.3577C42.1973 48.214 42.9825 47.9768 43.6503 47.5666C43.7381 47.5161 53.5332 41.6801 56.0439 40.1846C57.5156 39.3198 59.4114 39.9136 60.1209 41.4816C60.7316 42.8237 60.2089 44.4115 58.9449 45.1491L49.3609 50.7732C48.7358 51.1402 48.5263 51.9444 48.8932 52.5696C49.2595 53.1935 50.0627 53.4048 50.6896 53.0373L60.271 47.4148C61.9548 46.4317 63.0008 44.6097 63.0008 42.6598C63.0008 40.2274 61.4059 38.132 59.1631 37.4205Z" fill="white"/>
</svg>
