<svg width="49" height="58" viewBox="0 0 49 58" fill="none" xmlns="http://www.w3.org/2000/svg">
<path d="M35.2058 22.3174H5.66424C5.0164 22.3174 4.49219 22.8422 4.49219 23.4894C4.49219 24.1367 5.0164 24.6615 5.66424 24.6615H35.2058C35.8536 24.6615 36.3778 24.1367 36.3778 23.4894C36.3778 22.8422 35.8536 22.3174 35.2058 22.3174Z" fill="white"/>
<path d="M35.2064 27.7266H29.7365C29.0887 27.7266 28.5645 28.2514 28.5645 28.8986C28.5645 29.5459 29.0887 30.0707 29.7365 30.0707H35.2064C35.8543 30.0707 36.3785 29.5459 36.3785 28.8986C36.3785 28.2514 35.8543 27.7266 35.2064 27.7266Z" fill="white"/>
<path d="M35.2064 51.7152C35.8542 51.7152 36.3784 51.1904 36.3784 50.5431C36.3784 49.8959 35.8542 49.3711 35.2064 49.3711H28.6125C27.9646 49.3711 27.4404 49.8959 27.4404 50.5431C27.4404 51.1904 27.9646 51.7152 28.6125 51.7152H35.2064Z" fill="white"/>
<path d="M5.66424 51.7152H7.43948C8.08731 51.7152 8.61152 51.1904 8.61152 50.5431C8.61152 49.8959 8.08731 49.3711 7.43948 49.3711H5.66424C5.0164 49.3711 4.49219 49.8959 4.49219 50.5431C4.49219 51.1904 5.0164 51.7152 5.66424 51.7152Z" fill="white"/>
<path d="M36.3778 13.2775C36.3778 11.8491 35.2149 10.6868 33.7865 10.6868H7.08351C5.65508 10.6868 4.49219 11.8491 4.49219 13.2775V16.6592C4.49219 18.0882 5.65508 19.2505 7.08351 19.2505H33.7865C35.2149 19.2505 36.3778 18.0882 36.3778 16.6592V13.2775ZM34.0338 16.6592C34.0338 16.7954 33.9227 16.9064 33.7865 16.9064H7.08351C6.94731 16.9064 6.83628 16.7954 6.83628 16.6592V13.2775C6.83628 13.1413 6.94731 13.0309 7.08351 13.0309H33.7865C33.9227 13.0309 34.0338 13.1413 34.0338 13.2775V16.6592Z" fill="white"/>
<path d="M48.5643 39.3093C48.5643 36.8616 46.5728 34.8701 44.1245 34.8701H33.6642C33.0389 34.8701 32.5397 35.3626 32.505 35.9786H29.9721C28.5091 30.7527 23.715 26.9038 18.0281 26.9038C11.1916 26.9038 5.62891 32.4722 5.62891 39.3162C5.62891 46.1733 11.1917 51.7154 18.0281 51.7154C23.4805 51.7154 28.4644 48.1148 29.987 42.6378H32.5044C32.5377 43.2552 33.0379 43.7491 33.6642 43.7491H44.1256C46.5728 43.7491 48.5643 41.7576 48.5643 39.3093ZM46.2202 39.3093C46.2202 40.4648 45.2805 41.405 44.1256 41.405H34.8397V37.2142H44.1245C45.2805 37.2142 46.2202 38.1539 46.2202 39.3093ZM18.0281 29.2479C23.5805 29.2479 28.097 33.7644 28.097 39.3162C28.097 41.2954 27.5059 43.2111 26.4279 44.8469C25.1345 43.3411 23.4567 42.1892 21.5672 41.5475C21.305 41.4577 21.0212 41.4651 20.766 41.5647C19.0674 42.2251 16.9854 42.2194 15.3029 41.5647C15.0465 41.464 14.7626 41.4577 14.5017 41.5475C12.6123 42.1891 10.9347 43.3408 9.64137 44.8464C8.56375 43.2097 7.973 41.2945 7.973 39.3162C7.973 33.7644 12.4838 29.2479 18.0281 29.2479ZM11.1708 46.664C12.1375 45.4332 13.4221 44.4752 14.8805 43.9037C16.8687 44.5669 19.1922 44.5704 21.1883 43.9037C22.6466 44.4751 23.931 45.4331 24.8977 46.6637C22.9721 48.4518 20.4725 49.3713 18.0281 49.3713C15.5057 49.3713 12.9982 48.3733 11.1708 46.664ZM30.4514 39.3145C30.4514 38.9808 30.4376 38.6495 30.4113 38.3227H32.4922V40.2937H30.4125C30.4388 39.9669 30.4514 39.6395 30.4514 39.3145Z" fill="white"/>
<path d="M28.3592 0.87085H12.5125C11.1379 0.87085 10.0196 1.9891 10.0196 3.36317V4.21702H4.54169C2.03735 4.21702 0 6.25437 0 8.75871V52.5875C0 55.0918 2.03735 57.1292 4.54169 57.1292H36.3301C38.8344 57.1292 40.8717 55.0918 40.8717 52.5875V47.0712C40.8717 46.4239 40.3475 45.8991 39.6997 45.8991C39.0519 45.8991 38.5276 46.4239 38.5276 47.0712V52.5875C38.5276 53.799 37.5422 54.7851 36.3301 54.7851H4.54169C3.32958 54.7851 2.3441 53.799 2.3441 52.5875V8.75871C2.3441 7.54717 3.32958 6.56112 4.54169 6.56112H10.0746C10.3146 7.68689 11.3283 8.51798 12.4814 8.53466C12.4921 8.5348 12.5019 8.53781 12.5125 8.53781H12.5171C21.8695 8.53781 19.0021 8.53781 28.3592 8.53781C28.3699 8.53781 28.3797 8.5348 28.3903 8.53466C29.5389 8.51805 30.5556 7.69414 30.7972 6.56112H36.3301C37.5422 6.56112 38.5276 7.54717 38.5276 8.75871V31.5484C38.5276 32.1957 39.0519 32.7205 39.6997 32.7205C40.3475 32.7205 40.8717 32.1957 40.8717 31.5484V8.75871C40.8717 6.25437 38.8344 4.21702 36.3301 4.21702H30.8521V3.36317C30.8521 1.9891 29.7339 0.87085 28.3592 0.87085ZM12.5171 6.19371C12.4358 6.19371 12.3637 6.12217 12.3637 6.04034C12.3637 5.88343 12.3637 3.24282 12.3637 3.36317C12.3637 3.28133 12.4301 3.21495 12.5125 3.21495H28.3592C28.4416 3.21495 28.508 3.28133 28.508 3.36317C28.508 3.48791 28.508 6.19664 28.508 6.04034C28.508 6.12217 28.4359 6.19371 28.3546 6.19371H12.5171Z" fill="white"/>
<path d="M18.0336 39.8467C20.3456 39.8467 22.2262 37.9661 22.2262 35.6541C22.2262 33.3421 20.3456 31.4609 18.0336 31.4609C15.7215 31.4609 13.8398 33.3421 13.8398 35.6541C13.8398 37.9661 15.7215 39.8467 18.0336 39.8467ZM18.0336 33.805C19.0534 33.805 19.8821 34.6343 19.8821 35.6541C19.8821 36.6733 19.0534 37.5026 18.0336 37.5026C17.0138 37.5026 16.1839 36.6733 16.1839 35.6541C16.1839 34.6343 17.0138 33.805 18.0336 33.805Z" fill="white"/>
</svg>
