<svg width="24" height="24" viewBox="0 0 24 24" fill="none" xmlns="http://www.w3.org/2000/svg">
<path d="M23.2502 22.5005V16.5011C23.2502 16.0886 22.9128 15.7512 22.5003 15.7512C22.0878 15.7512 21.7504 16.0886 21.7504 16.5011V22.5005H17.2508V14.2513H23.2502C23.7602 14.2513 24.1201 13.7489 23.9626 13.2615L21.7129 6.51216C21.6079 6.2047 21.3229 6.00221 21.0004 6.00221H13.9961L12.8262 4.98232L16.0284 3.69994C16.6058 3.46746 16.6658 2.68005 16.1334 2.35757L12.3838 0.107802C11.8888 -0.192166 11.2514 0.167796 11.2514 0.752735V4.91486L10.0065 6.00223H3.00213C2.67965 6.00223 2.39471 6.21221 2.2897 6.51218L0.0399308 13.2615C-0.125052 13.7489 0.24241 14.2514 0.752368 14.2514V22.5005C0.339899 22.5005 0.0024467 22.838 0.0024467 23.2504C0.0024467 23.6629 0.339899 24.0004 0.752368 24.0004H23.25C23.6625 24.0004 23.9999 23.6629 23.9999 23.2504C23.9999 22.838 23.6627 22.5005 23.2502 22.5005ZM20.4605 7.50205L22.2078 12.7515H17.2509V10.8392L17.5059 11.0642C17.8208 11.3341 18.2933 11.3041 18.5632 10.9967C18.8332 10.6817 18.8032 10.2093 18.4957 9.9393L15.7135 7.50211L20.4605 7.50205ZM12.7513 2.08006L14.0712 2.86747L12.7513 3.39241V2.07255V2.08006ZM3.54227 7.50205H8.28921L5.50694 9.93924C5.19198 10.2092 5.16198 10.6892 5.43945 10.9966C5.70942 11.3041 6.18188 11.3416 6.49683 11.0641L6.7518 10.8391V12.7514H1.79488L3.54227 7.50205ZM2.2524 14.2513H6.75193V22.5005H2.2524V14.2513ZM8.25178 9.52672L12.0014 6.24194L15.751 9.52672V22.5002H14.2511V19.5006C14.2511 18.6756 13.5762 18.0007 12.7513 18.0007H11.2515C10.4265 18.0007 9.75162 18.6756 9.75162 19.5006V22.5002H8.25178V9.52672ZM11.2515 22.5002V19.5006H12.7513V22.5002H11.2515Z" fill="#A52823"/>
</svg>
