<svg width="60" height="60" viewBox="0 0 60 60" fill="none" xmlns="http://www.w3.org/2000/svg">
<path d="M26.6074 11.6118C26.6074 13.0445 28.0962 14.1669 29.9971 14.1669C31.8972 14.1669 33.3864 13.0449 33.3864 11.6118C33.3864 10.1792 31.8976 9.05713 29.9971 9.05713C28.0962 9.05713 26.6074 10.1792 26.6074 11.6118ZM29.9967 11.048C30.8994 11.048 31.3951 11.4713 31.3951 11.6118C31.3951 11.7524 30.8994 12.176 29.9967 12.176C29.094 12.176 28.5979 11.7524 28.5979 11.6118C28.5979 11.4713 29.0944 11.048 29.9967 11.048Z" fill="white"/>
<path d="M56.6418 36.0144H10.5959C10.445 36.0144 10.2944 36.0391 10.1511 36.0873L0.948854 39.1847C0.381851 39.3754 0 39.907 0 40.5054C0 41.1039 0.381851 41.6355 0.948854 41.8262L10.1511 44.924C10.2944 44.9722 10.4446 44.9969 10.5959 44.9969H56.6418C58.4889 44.9969 59.9912 43.6315 59.9912 41.9536V39.0569C59.9912 37.3794 58.4889 36.0144 56.6418 36.0144ZM12.144 38.8016H50.6341V42.21H12.144V38.8016ZM9.75492 39.1616V41.8501L5.76161 40.5058L9.75492 39.1616ZM57.204 41.954C57.204 42.003 57.0164 42.21 56.6418 42.21H53.0231V38.8016H56.6418C57.0164 38.8016 57.204 39.0087 57.204 39.0573V41.954Z" fill="white"/>
<path d="M58.4969 46.8472H1.39362C0.623942 46.8472 0 47.4711 0 48.2408V57.7811C0 58.5508 0.623942 59.1747 1.39362 59.1747H58.4969C59.2665 59.1747 59.8905 58.5508 59.8905 57.7811V48.2408C59.8905 47.4715 59.2665 46.8472 58.4969 46.8472ZM57.1032 56.3875H2.78723V49.6344H5.25194V53.5341C5.25194 54.084 5.6975 54.5296 6.24738 54.5296C6.79727 54.5296 7.24282 54.084 7.24282 53.5341V49.6344H11.1657V52.0075C11.1657 52.5574 11.6112 53.003 12.1611 53.003C12.711 53.003 13.1565 52.5574 13.1565 52.0075V49.6344H17.079V53.5341C17.079 54.084 17.5245 54.5296 18.0744 54.5296C18.6243 54.5296 19.0699 54.084 19.0699 53.5341V49.6344H22.9923V52.0075C22.9923 52.5574 23.4378 53.003 23.9877 53.003C24.5376 53.003 24.9832 52.5574 24.9832 52.0075V49.6344H28.9056V53.5341C28.9056 54.084 29.3512 54.5296 29.901 54.5296C30.4509 54.5296 30.8965 54.084 30.8965 53.5341V49.6344H34.8193V52.0075C34.8193 52.5574 35.2649 53.003 35.8148 53.003C36.3646 53.003 36.8102 52.5574 36.8102 52.0075V49.6344H40.733V53.5341C40.733 54.084 41.1786 54.5296 41.7285 54.5296C42.2783 54.5296 42.7239 54.084 42.7239 53.5341V49.6344H46.6463V52.0075C46.6463 52.5574 47.0919 53.003 47.6418 53.003C48.1917 53.003 48.6372 52.5574 48.6372 52.0075V49.6344H52.5601V53.5341C52.5601 54.084 53.0056 54.5296 53.5555 54.5296C54.1054 54.5296 54.5509 54.084 54.5509 53.5341V49.6344H57.104V56.3875H57.1032Z" fill="white"/>
<path d="M4.55806 12.9023L10.4487 15.3041V25.739C10.4487 26.4438 10.764 27.1008 11.3135 27.5416C16.6196 31.7969 23.2871 34.1402 30.0887 34.1402C36.89 34.1402 43.5574 31.7965 48.8639 27.5412C49.4134 27.1 49.7283 26.443 49.7283 25.739V15.2284L55.4334 12.9023C55.4884 12.88 55.5401 12.8525 55.5911 12.8238C55.9017 13.0408 56.1063 13.3996 56.1063 13.8061V19.162C54.9974 19.5693 54.2031 20.6324 54.2031 21.8807C54.2031 23.039 54.8875 24.038 55.8722 24.5019L54.3249 30.1357C54.1796 30.6657 54.4913 31.2136 55.0213 31.3593C55.5529 31.505 56.0992 31.1929 56.2449 30.6629L57.1018 27.5424L57.9586 30.6629C58.0805 31.1049 58.4811 31.3951 58.9183 31.3951C59.0055 31.3951 59.0938 31.3836 59.1822 31.3593C59.7126 31.2136 60.024 30.6657 59.8787 30.1357L58.3313 24.5019C59.3156 24.038 60.0001 23.039 60.0001 21.8807C60.0001 20.6324 59.2057 19.5693 58.0972 19.162V13.8061C58.0972 12.4563 57.2531 11.3024 56.0657 10.8373C55.9144 10.6111 55.697 10.4288 55.4334 10.3213L30.5562 0.178535C30.3722 0.10328 30.1827 0.0706292 29.9955 0.0754073C29.8088 0.0710274 29.6189 0.10328 29.4349 0.178535L4.55806 10.3213C4.03366 10.5351 3.69043 11.0452 3.69043 11.6118C3.69043 12.1784 4.03366 12.688 4.55806 12.9023ZM29.9955 20.2637L8.77554 11.6118L29.9955 2.95979L51.2159 11.6118L29.9955 20.2637ZM46.9411 25.5093C36.9863 33.3621 23.1915 33.3625 13.2359 25.5093V16.4404L29.4349 23.0454C29.6017 23.1135 29.7805 23.1485 29.9609 23.1485H30.0302C30.2106 23.1485 30.3893 23.1135 30.5562 23.0454L46.9407 16.3648L46.9411 25.5093ZM58.0092 21.8807C58.0092 22.3812 57.6023 22.7886 57.1018 22.7886C56.6009 22.7886 56.1939 22.3812 56.1939 21.8807C56.1939 21.3802 56.6009 20.9729 57.1018 20.9729C57.6019 20.9729 58.0092 21.3802 58.0092 21.8807Z" fill="white"/>
</svg>
